<svg width="50" height="50" viewBox="0 0 50 50" fill="none" xmlns="http://www.w3.org/2000/svg">
<circle cx="25" cy="25" r="25" fill="#FF0000"/>
<path d="M32.5 18C32.5 26.2843 29.9288 28.7637 25.5105 28.7637C21.0922 28.7637 18.5 26.2843 18.5 18C18.5 10.7637 21.0922 7 25.5105 7C29.9288 7 32.5 10.7637 32.5 18Z" fill="white"/>
<path d="M16.5 23C17.5 35 33.5 35 34.5 23" stroke="white" stroke-width="2"/>
<line x1="25" y1="32" x2="25" y2="40" stroke="white" stroke-width="2"/>
<rect x="20" y="40" width="10" height="2" rx="1" fill="white"/>
<rect x="14" y="12.2071" width="1.91698" height="28.2929" transform="rotate(-45 14 12.2071)" fill="#FF0000"/>
<rect x="14.2071" y="9.70711" width="2" height="31.1599" rx="1" transform="rotate(-45 14.2071 9.70711)" fill="white"/>
</svg>
